<svg width="14" height="14" viewBox="0 0 14 14" xmlns="http://www.w3.org/2000/svg"><g fill="#FFF" fill-rule="nonzero"><path d="M9.521 2.667H1.428C.64 2.667 0 3.307 0 4.095v8.093c0 .789.64 1.428 1.428 1.428h8.093c.789 0 1.428-.64 1.428-1.428V4.095c0-.789-.64-1.428-1.428-1.428zm.476 9.52a.476.476 0 01-.476.477H1.428a.476.476 0 01-.476-.476V4.095c0-.263.213-.476.476-.476h8.093c.263 0 .476.213.476.476v8.093z"/><path d="M11.997 0H3.428C2.64 0 2 .64 2 1.428a.476.476 0 10.952 0c0-.263.213-.476.476-.476h8.57c.262 0 .475.213.475.476v8.57a.476.476 0 01-.476.475.476.476 0 100 .952c.789 0 1.428-.639 1.428-1.428V1.428C13.425.64 12.786 0 11.997 0z"/></g></svg>