<svg width="22" height="22" viewBox="0 0 22 22" xmlns="http://www.w3.org/2000/svg"><g fill="none" fill-rule="evenodd"><path d="M11 22c6.075 0 11-4.925 11-11S17.075 0 11 0 0 4.925 0 11s4.925 11 11 11z" fill="#111"/><path d="M11.183 11.867l-3.758 3.758a.483.483 0 11-.683-.683l3.758-3.759-3.758-3.758a.483.483 0 01.683-.683l3.758 3.758 3.759-3.758a.483.483 0 01.683.683l-3.758 3.758 3.758 3.759a.483.483 0 01-.683.683l-3.759-3.758z" stroke="#FFF" stroke-width=".5" fill="#FFF" stroke-linecap="round" stroke-linejoin="round"/></g></svg>