<svg width="15" height="15" viewBox="0 0 15 15" xmlns="http://www.w3.org/2000/svg"><g fill="#FFF" fill-rule="nonzero"><path d="M10.17.171H1.538C.697.171.015.853.015 1.695v8.632c0 .841.682 1.523 1.523 1.523h8.632c.842 0 1.524-.682 1.524-1.523V1.695c0-.842-.682-1.524-1.524-1.524zm.508 10.156c0 .28-.227.508-.508.508H1.538a.508.508 0 01-.508-.508V1.695c0-.28.227-.508.508-.508h8.632c.28 0 .508.227.508.508v8.632z"/><path d="M5.964 6.542h1.892a.153.153 0 100-.307H5.964V4.343a.153.153 0 10-.307 0v1.892H3.765a.153.153 0 000 .307h1.892v1.892a.153.153 0 10.307 0V6.542z" stroke="#FFF" stroke-width=".5"/><path d="M13.844 12.513v1.345H12.12v1.075h2.24c.353 0 .64-.24.64-.537v-1.883h-1.156zM7.198 13.858h3.443v1.076H7.198zM3.987 13.858v-1.345H2.84v1.883c0 .296.287.537.64.537h2.24v-1.075H3.987zM14.418 2.773h-2.039v1.105h1.456v1.775H15v-2.24c0-.353-.26-.64-.582-.64zM13.835 7.132H15v3.443h-1.165z"/></g></svg>