<svg width="14" height="15" viewBox="0 0 14 15" xmlns="http://www.w3.org/2000/svg"><g fill="#FFF" fill-rule="nonzero" stroke="#FFF"><path d="M12.613 2.935H9.815V2.48A1.48 1.48 0 008.335 1h-2.66a1.48 1.48 0 00-1.479 1.48v.455H1.398a.372.372 0 00-.373.374c0 .207.166.373.373.373h.675v8.77c0 1.101.896 1.997 1.996 1.997h5.873c1.1 0 1.996-.896 1.996-1.996V3.682h.675a.372.372 0 00.373-.373.372.372 0 00-.373-.374zm-7.67-.456c0-.403.329-.732.733-.732h2.66c.403 0 .732.329.732.732v.456H4.943V2.48zm6.249 9.974c0 .688-.562 1.25-1.25 1.25H4.069c-.688 0-1.25-.562-1.25-1.25V3.682h8.375v8.77h-.002z" stroke-width=".3"/><path d="M7.006 12.364a.372.372 0 00.373-.373V5.394a.372.372 0 00-.373-.374.372.372 0 00-.374.374v6.594c0 .207.166.376.374.376zM4.57 11.952a.372.372 0 00.373-.373V5.803a.372.372 0 00-.373-.374.372.372 0 00-.374.374v5.776c0 .207.169.373.374.373zM9.441 11.952a.372.372 0 00.374-.373V5.803a.372.372 0 00-.374-.374.372.372 0 00-.373.374v5.776c0 .207.166.373.373.373z" stroke-width=".2"/></g></svg>