<svg width="86" height="51" viewBox="0 0 86 51" fill="none" xmlns="http://www.w3.org/2000/svg"><g clip-path="url(#clip0)"><path d="M1.405 17.11a1.99 1.99 0 01.729-2.719l16.12-9.306a.995.995 0 01.754-.1l10.94 2.932a4.974 4.974 0 013.02 2.317l12.236 21.192a1.99 1.99 0 01-.729 2.718L21.272 47.541a1.99 1.99 0 01-2.718-.729L1.405 17.11z" fill="#fff" stroke="#BDC3CB" stroke-width="1.393" stroke-miterlimit="10" stroke-linecap="square"/><path d="M19.325 5.194a.696.696 0 00-.782 1.021l3.493 6.05a2.686 2.686 0 003.67.983l6.076-3.508a.697.697 0 00-.17-1.276l-12.287-3.27z" stroke="#BDC3CB" stroke-width="1.393" stroke-linejoin="round"/><path d="M20.478 30.228l-1.702.983-2.044-1.09-.067 2.309L15 33.39l.198-3.828-3.233-1.68 1.631-.941 1.955 1.116-.026-2.23 1.68-.97-.123 3.77 3.396 1.6zM21.088 29.876l-3.144-5.445 1.472-.85 2.457 4.258 2.097-1.21.686 1.187-3.568 2.06zM28.132 23.604c.195.338.282.687.262 1.048-.02.36-.15.708-.389 1.039-.238.331-.576.623-1.01.873-.362.21-.68.36-.956.45-.275.092-.582.15-.92.177l-.758-1.311c.364-.018.72-.074 1.07-.168.35-.095.65-.215.904-.361.218-.126.357-.256.415-.39a.403.403 0 00-.016-.381.38.38 0 00-.174-.16.84.84 0 00-.296-.056c-.123-.004-.432.018-.926.068-.448.044-.804.041-1.07-.008a1.662 1.662 0 01-.695-.294 1.99 1.99 0 01-.53-.621c-.29-.502-.334-.999-.13-1.49.203-.49.624-.92 1.262-1.288.563-.326 1.213-.527 1.95-.606l.204 1.396c-.643.061-1.15.198-1.52.412-.19.11-.31.224-.359.341a.35.35 0 00.014.324c.061.107.172.17.331.192.16.02.547.002 1.166-.058.591-.06 1.047-.02 1.37.115.322.138.589.39.801.757zM34.834 21.94l-1.702.983-2.044-1.09-.067 2.309-1.665.961.198-3.829-3.233-1.678 1.631-.942 1.955 1.116-.026-2.23 1.68-.97-.123 3.77 3.396 1.6z" fill="#BDC3CB"/><path d="M27.43 2.74c0-1.1.891-1.99 1.99-1.99h16.965c1.32 0 2.584.524 3.517 1.456l6.843 6.844a4.975 4.975 0 011.457 3.517v24.47a1.99 1.99 0 01-1.99 1.99H29.42a1.99 1.99 0 01-1.99-1.99V2.74z" fill="#fff" stroke="#BDC3CB" stroke-width="1.393" stroke-miterlimit="10" stroke-linecap="square"/><path d="M36.844 20.124c0 .966-.266 1.709-.798 2.231-.532.523-1.279.784-2.24.784h-1.873v-5.785h2.003c.929 0 1.645.237 2.15.712.506.475.758 1.16.758 2.058zm-1.623.055c0-.53-.104-.923-.314-1.18-.21-.256-.529-.383-.956-.383h-.455v3.24h.348c.475 0 .823-.139 1.045-.414.222-.276.332-.696.332-1.263zM43.293 20.238c0 .973-.238 1.713-.716 2.22-.477.507-1.176.76-2.097.76-.908 0-1.603-.255-2.088-.764-.484-.509-.725-1.25-.725-2.224 0-.964.24-1.699.722-2.207.48-.507 1.18-.761 2.099-.761.92 0 1.618.252 2.093.756.475.503.712 1.244.712 2.22zm-3.98 0c0 1.119.388 1.677 1.167 1.677.395 0 .69-.136.88-.407.19-.272.287-.695.287-1.271 0-.577-.097-1.004-.291-1.28-.195-.276-.484-.414-.869-.414-.782.001-1.174.566-1.174 1.695zM46.914 18.552a.996.996 0 00-.87.457c-.208.305-.314.724-.314 1.26 0 1.114.424 1.671 1.271 1.671.257 0 .504-.036.744-.108.24-.071.482-.157.724-.257v1.321c-.482.215-1.029.322-1.638.322-.874 0-1.543-.254-2.009-.76-.466-.507-.698-1.24-.698-2.195 0-.6.112-1.126.338-1.58.227-.455.55-.803.973-1.047.424-.244.922-.366 1.494-.366.626 0 1.222.136 1.793.408l-.479 1.23a5.496 5.496 0 00-.64-.253 2.238 2.238 0 00-.689-.103zM54.81 23.14H53l-1.128-1.81-1.115 1.81h-1.769l1.919-2.961-1.805-2.825h1.735l1.044 1.788 1.004-1.788h1.786L52.838 20.3l1.971 2.838z" fill="#BDC3CB"/><path d="M49.03 1.488a.697.697 0 00-1.179.502V9.69a2.686 2.686 0 002.686 2.687h8.081a.696.696 0 00.483-1.199l-10.07-9.69z" stroke="#BDC3CB" stroke-width="1.393" stroke-linejoin="round"/><path d="M58.332 3.974a1.99 1.99 0 012.718-.729l14.692 8.483a4.974 4.974 0 012.318 3.02l2.505 9.348a4.974 4.974 0 01-.497 3.775L67.833 49.063a1.99 1.99 0 01-2.718.728L41.912 36.395a1.99 1.99 0 01-.729-2.719l17.15-29.702z" fill="#fff" stroke="#BDC3CB" stroke-width="1.393" stroke-miterlimit="10" stroke-linecap="square"/><path d="M77.694 13.744a.697.697 0 00-1.308-.101l-2.712 6.068a2.686 2.686 0 001.293 3.519l4.74 2.268a.696.696 0 00.972-.81l-2.985-10.944z" stroke="#BDC3CB" stroke-width="1.393" stroke-linejoin="round"/><path d="M60.42 24.18c-.339.588-.774.942-1.305 1.062-.532.12-1.116-.004-1.754-.372l-.4-.23-1.007 1.744-1.42-.82 3.036-5.26 1.82 1.05c.665.384 1.08.818 1.245 1.3.166.483.094.992-.214 1.526zm-2.79-.699l.26.15c.213.123.417.16.613.113.195-.047.353-.177.475-.387.205-.355.111-.645-.283-.873l-.367-.212-.698 1.21zM65.236 28.085c-.507.878-1.139 1.414-1.896 1.61-.758.197-1.574.042-2.45-.464l-1.701-.982 3.037-5.26 1.82 1.051c.844.488 1.371 1.08 1.581 1.777.21.697.08 1.452-.39 2.268zm-1.504-.801c.279-.482.39-.894.334-1.237-.056-.343-.28-.627-.668-.85l-.414-.24-1.7 2.946.317.183c.432.249.82.306 1.167.172.346-.135.667-.458.964-.974zM65.995 32.18l-1.4-.809 3.037-5.26 3.109 1.795-.659 1.14-1.708-.986-.58 1.004 1.576.91-.658 1.14-1.576-.91-1.14 1.976h-.001z" fill="#BDC3CB"/></g><defs><clipPath id="clip0"><path fill="#fff" d="M0 0h85.977v51H0z"/></clipPath></defs></svg>