<svg width="32" height="32" viewBox="0 0 32 32" fill="none" xmlns="http://www.w3.org/2000/svg"><path d="M28 2H4a2 2 0 00-2 2v24a2 2 0 002 2h24a2 2 0 002-2V4a2 2 0 00-2-2z" fill="#EDEDED" stroke="#A5A7AE" stroke-miterlimit="10" stroke-linecap="square"/><path d="M21.787 14.874c.499.413.813 1.016.813 1.688v2.25c0 1.243-1.075 2.25-2.4 2.25h-5.4c-1.325 0-2.4-1.007-2.4-2.25v-2.25c0-1.242 1.075-2.25 2.4-2.25h2.4" stroke="#A5A7AE" stroke-width="1.6" stroke-miterlimit="10" stroke-linecap="round"/><path d="M10.213 17.126a2.188 2.188 0 01-.813-1.689v-2.25c0-1.242 1.075-2.25 2.4-2.25h5.4c1.325 0 2.4 1.008 2.4 2.25v2.25c0 1.243-1.075 2.25-2.4 2.25h-2.4" stroke="#A5A7AE" stroke-width="1.6" stroke-miterlimit="10" stroke-linecap="round"/></svg>