<svg width="35" height="35" viewBox="0 0 35 35" fill="none" xmlns="http://www.w3.org/2000/svg"><path d="M23 6H2a2 2 0 00-2 2v22a2 2 0 002 2h21a2 2 0 002-2V8a2 2 0 00-2-2z" fill="#EDEDED"/><path d="M32.11 6.321L10.642 1.513a2 2 0 00-2.39 1.514L3.05 26.262a2 2 0 001.514 2.389l21.468 4.808a2 2 0 002.389-1.514L33.624 8.71a2 2 0 00-1.514-2.39z" fill="#EDEDED" stroke="#A5A7AE" stroke-miterlimit="10" stroke-linecap="square"/><path d="M3.806 27.457l6.492-7.024 3.909 4.509 8.834-6.5 4.185 14.26-23.42-5.245zm10.815-13.974a2.5 2.5 0 101.093-4.88 2.5 2.5 0 00-1.093 4.88z" fill="#A5A7AE" stroke="#A5A7AE" stroke-miterlimit="10" stroke-linecap="square"/></svg>