<svg width="68" height="40" viewBox="0 0 68 40" fill="none" xmlns="http://www.w3.org/2000/svg"><rect x="43.14" y="4.906" width="22.148" height="27.936" rx="1.67" transform="rotate(15 43.14 4.906)" fill="#fff" stroke="#BDC3CB"/><g clip-path="url(#clip0)" stroke="#BDC3CB" stroke-width=".94" stroke-miterlimit="10"><path d="M48.983 18.436l6.987 1.872" stroke-linecap="square"/><path d="M54.66 25.2l2.059-7.687-6.988-1.872-2.309 8.618"/><path d="M45.355 25.452a1.688 1.688 0 10.874-3.26 1.688 1.688 0 00-.874 3.26zm7.237.941a1.688 1.688 0 10.874-3.26 1.688 1.688 0 00-.874 3.26z" stroke-linecap="square"/></g><rect x="3.612" y="10.434" width="22.148" height="27.936" rx="1.67" transform="rotate(-15 3.612 10.434)" fill="#fff" stroke="#BDC3CB"/><g clip-path="url(#clip1)" stroke="#BDC3CB" stroke-width=".94" stroke-miterlimit="10" stroke-linecap="square"><path d="M21.335 15.153l-9.317 2.497 2.496 9.316 9.317-2.496-2.496-9.317z"/><path d="M14.606 25.444l1.705-2.953 2.828 1.24 2.899-5.021m-4.829 1.543a.965.965 0 10-.5-1.863.965.965 0 00.5 1.863z"/></g><rect x="23.032" y="1.9" width="22.148" height="27.936" rx="1.67" fill="#fff" stroke="#BDC3CB"/><g clip-path="url(#clip2)"><path d="M33.14 14.421l2.412 1.447-2.411 1.447V14.42z" fill="#BDC3CB"/><path d="M38.928 11.045h-9.645v9.645h9.645v-9.645z" stroke="#BDC3CB" stroke-width=".94" stroke-miterlimit="10" stroke-linecap="square"/><path d="M29.283 12.974h9.645m-4.823-1.929v1.93m-2.411-1.93v1.93m4.823-1.93v1.93m-7.234 5.786h9.645m-4.823 1.929v-1.929m-2.411 1.929v-1.929m4.823 1.929v-1.929" stroke="#BDC3CB" stroke-width=".94" stroke-miterlimit="10"/></g><defs><clipPath id="clip0"><path fill="#fff" transform="rotate(15 -30.775 182.283)" d="M0 0h11.574v11.574H0z"/></clipPath><clipPath id="clip1"><path fill="#fff" transform="rotate(-15 69.86 -32.673)" d="M0 0h11.574v11.574H0z"/></clipPath><clipPath id="clip2"><path fill="#fff" transform="translate(28.319 10.08)" d="M0 0h11.574v11.574H0z"/></clipPath></defs></svg>