<svg width="14" height="14" viewBox="0 0 14 14" xmlns="http://www.w3.org/2000/svg"><path d="M8.125 4.75a.375.375 0 00.375-.375v-1.5a.375.375 0 00-.75 0v1.5c0 .207.168.375.375.375zM11.5 1h-9A1.5 1.5 0 001 2.5v9A1.5 1.5 0 002.5 13h9a1.5 1.5 0 001.5-1.5v-9A1.5 1.5 0 0011.5 1zM4 1.75h6v3.375a.375.375 0 01-.375.375h-5.25A.375.375 0 014 5.125V1.75zm8.25 9.75a.75.75 0 01-.75.75h-9a.75.75 0 01-.75-.75v-9a.75.75 0 01.75-.75h.75V5.5c0 .414.336.75.75.75h6a.75.75 0 00.75-.75V1.75h.75a.75.75 0 01.75.75v9z" fill="#FFF" fill-rule="nonzero" stroke="#FFF" stroke-width=".2"/></svg>